<?xml version="1.0" standalone="no"?>
<!DOCTYPE svg PUBLIC "-//W3C//DTD SVG 20010904//EN"
 "http://www.w3.org/TR/2001/REC-SVG-20010904/DTD/svg10.dtd">
<svg version="1.0" xmlns="http://www.w3.org/2000/svg"
 width="192.000000pt" height="185.000000pt" viewBox="0 0 192.000000 185.000000"
 preserveAspectRatio="xMidYMid meet">

<g transform="translate(0.000000,185.000000) scale(0.100000,-0.100000)"
fill="#000000" stroke="none">
<path d="M681 1775 c-222 -28 -371 -83 -406 -149 -19 -35 -19 -37 -1 -70 10
-18 29 -39 42 -46 18 -10 24 -22 24 -47 0 -19 6 -46 14 -62 21 -40 89 -98 151
-128 l54 -27 -30 -18 c-38 -23 -69 -74 -69 -114 0 -42 36 -92 92 -130 l47 -32
-29 -12 c-17 -7 -44 -28 -60 -47 -57 -64 -32 -149 59 -201 l51 -28 -58 -18
c-162 -51 -255 -131 -237 -205 5 -18 -1 -32 -23 -55 -41 -42 -48 -71 -26 -104
22 -33 38 -46 91 -72 117 -55 342 -90 588 -90 398 0 695 86 695 202 0 29 -57
84 -111 107 -257 111 -791 121 -1109 22 -65 -20 -79 -17 -80 16 0 45 129 126
259 162 l71 20 108 -24 c276 -62 532 -76 653 -37 115 38 132 88 44 132 -48 24
-56 25 -245 24 -193 -1 -357 -17 -498 -49 -58 -14 -66 -13 -116 6 -141 52
-154 169 -25 217 50 18 53 18 126 1 175 -42 520 -69 615 -50 94 20 136 73 90
114 -67 60 -359 63 -669 6 l-112 -21 -46 22 c-58 28 -102 70 -111 105 -11 44
19 93 71 116 45 20 45 20 111 0 129 -40 332 -64 559 -65 178 -1 215 2 246 16
118 56 46 135 -145 158 -125 15 -429 -6 -644 -46 l-84 -15 -66 31 c-111 52
-172 111 -172 168 0 19 3 21 19 12 35 -18 223 -59 323 -70 54 -5 163 -10 243
-10 245 0 482 38 594 94 53 27 101 77 101 106 0 48 -88 111 -200 143 -172 50
-546 70 -769 42z m589 -36 l85 -14 -50 -6 c-27 -4 -82 -8 -121 -8 -96 -1 -369
-28 -479 -47 -117 -20 -255 -66 -311 -104 -48 -33 -72 -31 -94 11 -39 72 166
153 465 183 79 8 422 -3 505 -15z m267 -73 c28 -14 59 -36 68 -50 16 -24 16
-28 1 -51 -32 -49 -161 -96 -351 -126 -121 -20 -505 -17 -630 5 -113 19 -235
53 -235 65 0 15 34 39 85 61 126 54 389 95 704 109 293 14 300 13 358 -13z
m-82 -402 c63 -25 68 -45 18 -70 -33 -17 -61 -19 -228 -18 -188 0 -294 10
-450 40 -136 27 -128 31 125 60 66 7 194 12 300 10 155 -2 193 -6 235 -22z
m-82 -287 c64 -27 45 -60 -44 -77 -90 -17 -579 25 -579 50 0 7 73 20 235 40
110 14 343 6 388 -13z m92 -282 c53 -26 51 -45 -8 -67 -71 -27 -176 -36 -301
-26 -120 9 -363 45 -385 57 -15 9 156 38 294 51 50 4 151 7 225 7 113 -2 142
-5 175 -22z m-190 -230 c174 -26 309 -77 336 -126 15 -29 -10 -63 -69 -93 -89
-45 -115 -48 -355 -36 -440 21 -717 77 -791 159 -12 13 -16 25 -10 30 24 23
213 65 364 81 116 12 403 4 525 -15z m-822 -170 c29 -14 89 -34 131 -45 132
-34 432 -70 578 -70 113 0 85 -18 -40 -25 -229 -15 -494 6 -652 52 -124 35
-193 89 -171 132 21 39 42 42 72 10 15 -16 52 -41 82 -54z"/>
</g>
</svg>
